# xmcd
#
# Track frame offsets: 
#        150
#        12046
#        23927
#        36764
#        50933
#        64364
#        82362
#        97317
#        111834
#        123672
#        138238
#        150460
#        163057
#        178037
#        190272
#        205622
#        217771
#        232455
#        246315
#        260572
#
# Disc length: 3662 seconds
#
# Revision: 0
# Processed by: cddbd v1.5.2PL0 Copyright (c) Steve Scherf et al.
# Submitted via: ExactAudioCopy v1.0b1
#
DISCID=2f0e4c14
DTITLE=Various Artist - The Motown Box - Dancing In The Streets
DYEAR=2005
DGENRE=R&B
TTITLE0=Martha and The Vandellas - Dancing In The Street (stereo)
TTITLE1=The Temptations - Get Ready (stereo)
TTITLE2=Kim Weston - Take Me In Your Arms (Rock Me A Little While) (st
TTITLE2=ereo)
TTITLE3=The Supremes - Back In My Arms Again (2005 stereo mix)
TTITLE4=The Miracles - Going To A Go-Go (2002 stereo mix)
TTITLE5=The Miracles - The Tracks Of My Tears (2002 stereo mix)
TTITLE6=Jr. Walker and The All Stars - Shotgun (2005 stereo mix)
TTITLE7=The Four Tops - It's The Same Old Song (stereo)
TTITLE8=The Isley Brothers - This Old Heart Of Mine (Is Weak For You) 
TTITLE8=(single version) (stereo)
TTITLE9=Jimmy Ruffin - What Becomes Of The Brokenhearted (intro versio
TTITLE9=n) (stereo)
TTITLE10=The Spinners - I'll Always Love You (stereo)
TTITLE11=Marvin Gaye - I'll Be Doggone (stereo)
TTITLE12=Stevie Wonder - Uptight (Everything's Alright) (2005 stereo m
TTITLE12=ix)
TTITLE13=The Temptations - Ain't Too Proud To Beg (2005 stereo strings
TTITLE13=mix)
TTITLE14=The Four Tops - I Can't Help Myself (Sugar Pie, Honey Bunch) 
TTITLE14=(alt. backing vocals) (stereo)
TTITLE15=The Four Tops - Something About You (stereo)
TTITLE16=The Supremes - Stop! In The Name Of Love (2005 stereo mix)
TTITLE17=Mary Wells - My Guy (2005 stereo mix)
TTITLE18=The Temptations - My Girl (2005 stereo mix)
TTITLE19=The Miracles - My Girl Has Gone (2002 stereo mix)
EXTD=
EXTT0=
EXTT1=
EXTT2=
EXTT3=
EXTT4=
EXTT5=
EXTT6=
EXTT7=
EXTT8=
EXTT9=
EXTT10=
EXTT11=
EXTT12=
EXTT13=
EXTT14=
EXTT15=
EXTT16=
EXTT17=
EXTT18=
EXTT19=
PLAYORDER=
